<svg width="107" height="107" viewBox="0 0 107 107" fill="none" xmlns="http://www.w3.org/2000/svg">
<rect y="0.313599" width="106.509" height="106.509" rx="53.2544" fill="url(#paint0_linear_159_585)"/>
<path d="M45.0821 70.6867V45.9778H52.8134V70.6867H45.0821ZM28 70.6867V45.9778H35.7313V70.6867H28ZM30.8209 60.6569V55.0673H49.8881V60.6569H30.8209Z" fill="white"/>
<path d="M44.9066 70.6867V36.3136H57.235C59.8121 36.3136 62.0583 36.6793 63.9738 37.4106C65.8892 38.142 67.3693 39.2041 68.4141 40.5972C69.4937 41.9902 70.0335 43.6793 70.0335 45.6643C70.0335 47.1619 69.6678 48.6245 68.9364 50.0524C68.2051 51.4803 67.2126 52.7514 65.9588 53.8658C64.7051 54.9803 63.2772 55.8683 61.6753 56.53C60.0733 57.1917 58.4016 57.5226 56.6603 57.5226H47.9364V52.3509H56.817C57.827 52.3509 58.6976 52.1071 59.429 51.6196C60.1952 51.0972 60.7872 50.4181 61.2051 49.5823C61.6578 48.7116 61.8842 47.7887 61.8842 46.8136C61.8842 45.3161 61.3792 44.1494 60.3693 43.3136C59.3593 42.4778 57.8618 42.0599 55.8767 42.0599H52.6902V70.6867H44.9066ZM71.1305 71.3136C69.633 71.3136 68.327 71.1046 67.2126 70.6867C66.133 70.2688 65.1578 69.6245 64.2872 68.7539C63.4514 67.8832 62.5981 66.7514 61.7275 65.3584L55.9812 55.7464L61.8842 53.3957L69.1976 62.5897C69.929 63.4952 70.5907 64.1917 71.1827 64.6793C71.7748 65.1668 72.332 65.4977 72.8544 65.6718C73.4116 65.8459 73.9165 65.933 74.3693 65.933C74.6131 65.933 74.9091 65.9156 75.2573 65.8808C75.6404 65.8459 75.9887 65.7589 76.3021 65.6196L77.817 69.8509C76.5285 70.4081 75.3444 70.7912 74.2648 71.0002C73.1852 71.2091 72.1404 71.3136 71.1305 71.3136Z" fill="white"/>
<defs>
<linearGradient id="paint0_linear_159_585" x1="0" y1="0.313599" x2="106.509" y2="106.822" gradientUnits="userSpaceOnUse">
<stop stop-color="#5D30BE"/>
<stop offset="1" stop-color="#B330BE"/>
</linearGradient>
</defs>
</svg>
