<svg width="50" height="35" viewBox="0 0 50 35" fill="none" xmlns="http://www.w3.org/2000/svg">
<path d="M17.0821 34.3731V9.66418H24.8134V34.3731H17.0821ZM0 34.3731V9.66418H7.73134V34.3731H0ZM2.8209 24.3433V18.7537H21.8881V24.3433H2.8209Z" fill="url(#paint0_linear_194_7013)"/>
<path d="M16.9066 34.3731V0H29.235C31.8121 0 34.0583 0.365672 35.9738 1.09702C37.8892 1.82836 39.3693 2.89055 40.4141 4.28358C41.4937 5.67662 42.0335 7.36567 42.0335 9.35075C42.0335 10.8483 41.6678 12.3109 40.9364 13.7388C40.2051 15.1667 39.2126 16.4378 37.9588 17.5522C36.7051 18.6667 35.2772 19.5547 33.6753 20.2164C32.0733 20.8781 30.4016 21.209 28.6603 21.209H19.9364V16.0373H28.817C29.827 16.0373 30.6976 15.7935 31.429 15.306C32.1952 14.7836 32.7872 14.1045 33.2051 13.2687C33.6578 12.398 33.8842 11.4751 33.8842 10.5C33.8842 9.00249 33.3792 7.83582 32.3693 7C31.3593 6.16418 29.8618 5.74627 27.8767 5.74627H24.6902V34.3731H16.9066ZM43.1305 35C41.633 35 40.327 34.791 39.2126 34.3731C38.133 33.9552 37.1578 33.3109 36.2872 32.4403C35.4514 31.5697 34.5981 30.4378 33.7275 29.0448L27.9812 19.4328L33.8842 17.0821L41.1976 26.2761C41.929 27.1816 42.5907 27.8781 43.1827 28.3657C43.7748 28.8532 44.332 29.1841 44.8544 29.3582C45.4116 29.5323 45.9165 29.6194 46.3693 29.6194C46.6131 29.6194 46.9091 29.602 47.2573 29.5672C47.6404 29.5323 47.9887 29.4453 48.3021 29.306L49.817 33.5373C48.5285 34.0945 47.3444 34.4776 46.2648 34.6866C45.1852 34.8955 44.1404 35 43.1305 35Z" fill="url(#paint1_linear_194_7013)"/>
<defs>
<linearGradient id="paint0_linear_194_7013" x1="0" y1="0" x2="32.927" y2="46.8665" gradientUnits="userSpaceOnUse">
<stop stop-color="#5D30BE"/>
<stop offset="1" stop-color="#B330BE"/>
</linearGradient>
<linearGradient id="paint1_linear_194_7013" x1="0" y1="0" x2="32.927" y2="46.8665" gradientUnits="userSpaceOnUse">
<stop stop-color="#5D30BE"/>
<stop offset="1" stop-color="#B330BE"/>
</linearGradient>
</defs>
</svg>
