<svg width="20" height="20" viewBox="0 0 20 20" fill="none" xmlns="http://www.w3.org/2000/svg">
<ellipse cx="10" cy="13.7503" rx="5" ry="2.08333" stroke="#7152F3" stroke-width="1.5" stroke-linejoin="round"/>
<ellipse cx="10" cy="6.66699" rx="2.5" ry="2.5" stroke="#7152F3" stroke-width="1.5" stroke-linejoin="round"/>
<path fill-rule="evenodd" clip-rule="evenodd" d="M5.6288 10.9189C4.48481 10.9396 3.42291 11.1331 2.60847 11.4589C2.17917 11.6306 1.78142 11.8539 1.47873 12.1401C1.17446 12.4279 0.916626 12.831 0.916626 13.3338C0.916626 13.8366 1.17446 14.2397 1.47873 14.5274C1.78142 14.8137 2.17917 15.0369 2.60847 15.2086C3.07808 15.3965 3.62997 15.5404 4.23243 15.6325C3.6969 15.1143 3.37573 14.5174 3.33721 13.8802C3.27789 13.8594 3.22064 13.838 3.16556 13.8159C2.84084 13.686 2.6284 13.5501 2.50939 13.4376C2.45646 13.3875 2.4324 13.3529 2.42194 13.3338C2.4324 13.3147 2.45646 13.28 2.50939 13.2299C2.6284 13.1174 2.84084 12.9815 3.16556 12.8516C3.2971 12.799 3.44101 12.7498 3.59593 12.7048C3.95752 12.0028 4.67395 11.3857 5.6288 10.9189ZM2.4145 13.3513C2.41437 13.3512 2.41461 13.3499 2.41562 13.3472C2.41513 13.3499 2.41463 13.3513 2.4145 13.3513ZM2.41562 13.3204C2.41461 13.3177 2.41437 13.3163 2.4145 13.3163C2.41463 13.3163 2.41513 13.3176 2.41562 13.3204Z" fill="#7152F3"/>
<path fill-rule="evenodd" clip-rule="evenodd" d="M16.6628 13.8802C16.6243 14.5174 16.3031 15.1143 15.7676 15.6325C16.37 15.5404 16.9219 15.3965 17.3915 15.2086C17.8208 15.0369 18.2186 14.8137 18.5213 14.5274C18.8256 14.2397 19.0834 13.8366 19.0834 13.3338C19.0834 12.831 18.8256 12.4279 18.5213 12.1401C18.2186 11.8539 17.8208 11.6306 17.3915 11.4589C16.5771 11.1331 15.5152 10.9396 14.3712 10.9189C15.3261 11.3857 16.0425 12.0028 16.4041 12.7048C16.559 12.7498 16.7029 12.799 16.8345 12.8516C17.1592 12.9815 17.3716 13.1174 17.4906 13.2299C17.5436 13.28 17.5676 13.3147 17.5781 13.3338C17.5676 13.3529 17.5436 13.3875 17.4906 13.4376C17.3716 13.5501 17.1592 13.686 16.8345 13.8159C16.7794 13.838 16.7221 13.8594 16.6628 13.8802ZM17.5855 13.3513C17.5854 13.3513 17.5849 13.3499 17.5844 13.3472C17.5854 13.3499 17.5856 13.3512 17.5855 13.3513ZM17.5844 13.3204C17.5849 13.3176 17.5854 13.3163 17.5855 13.3163C17.5856 13.3163 17.5854 13.3177 17.5844 13.3204Z" fill="#7152F3"/>
<path fill-rule="evenodd" clip-rule="evenodd" d="M13.8142 8.34613C13.6078 8.81414 13.3177 9.23699 12.963 9.59575C13.3174 9.79969 13.7284 9.91634 14.1666 9.91634C15.5013 9.91634 16.5833 8.83436 16.5833 7.49967C16.5833 6.16499 15.5013 5.08301 14.1666 5.08301C14.0638 5.08301 13.9624 5.08943 13.863 5.1019C14.0489 5.56064 14.1556 6.06001 14.1658 6.58301C14.1661 6.58301 14.1664 6.58301 14.1666 6.58301C14.6729 6.58301 15.0833 6.99341 15.0833 7.49967C15.0833 8.00594 14.6729 8.41634 14.1666 8.41634C14.0417 8.41634 13.9227 8.39136 13.8142 8.34613Z" fill="#7152F3"/>
<path fill-rule="evenodd" clip-rule="evenodd" d="M6.13695 5.1019C6.03749 5.08943 5.93614 5.08301 5.83329 5.08301C4.4986 5.08301 3.41663 6.16499 3.41663 7.49967C3.41663 8.83436 4.4986 9.91634 5.83329 9.91634C6.27153 9.91634 6.68252 9.79969 7.03691 9.59575C6.6822 9.23699 6.39217 8.81414 6.18576 8.34613C6.07725 8.39136 5.95819 8.41634 5.83329 8.41634C5.32703 8.41634 4.91663 8.00594 4.91663 7.49967C4.91663 6.99341 5.32703 6.58301 5.83329 6.58301C5.83357 6.58301 5.83384 6.58301 5.83411 6.58301C5.84437 6.06001 5.95099 5.56064 6.13695 5.1019Z" fill="#7152F3"/>
</svg>
