<svg width="24" height="25" viewBox="0 0 24 25" fill="none" xmlns="http://www.w3.org/2000/svg">
<path d="M12 17.8225C12.2833 17.8225 12.5208 17.7267 12.7125 17.535C12.9042 17.3433 13 17.1058 13 16.8225C13 16.5392 12.9042 16.3017 12.7125 16.11C12.5208 15.9183 12.2833 15.8225 12 15.8225C11.7167 15.8225 11.4792 15.9183 11.2875 16.11C11.0958 16.3017 11 16.5392 11 16.8225C11 17.1058 11.0958 17.3433 11.2875 17.535C11.4792 17.7267 11.7167 17.8225 12 17.8225ZM11 13.8225H13V7.82251H11V13.8225ZM12 22.8225C10.6167 22.8225 9.31667 22.56 8.1 22.035C6.88333 21.51 5.825 20.7975 4.925 19.8975C4.025 18.9975 3.3125 17.9392 2.7875 16.7225C2.2625 15.5058 2 14.2058 2 12.8225C2 11.4392 2.2625 10.1392 2.7875 8.92251C3.3125 7.70584 4.025 6.64751 4.925 5.74751C5.825 4.84751 6.88333 4.13501 8.1 3.61001C9.31667 3.08501 10.6167 2.82251 12 2.82251C13.3833 2.82251 14.6833 3.08501 15.9 3.61001C17.1167 4.13501 18.175 4.84751 19.075 5.74751C19.975 6.64751 20.6875 7.70584 21.2125 8.92251C21.7375 10.1392 22 11.4392 22 12.8225C22 14.2058 21.7375 15.5058 21.2125 16.7225C20.6875 17.9392 19.975 18.9975 19.075 19.8975C18.175 20.7975 17.1167 21.51 15.9 22.035C14.6833 22.56 13.3833 22.8225 12 22.8225Z" fill="#9D0F0F"/>
</svg>
