<svg width="25" height="24" viewBox="0 0 25 24" fill="none" xmlns="http://www.w3.org/2000/svg">
<path fill-rule="evenodd" clip-rule="evenodd" d="M22.4959 2.90947C22.4479 2.38119 21.9957 1.98232 21.4655 2.0006C15.2819 2.21383 10.9801 5.47336 8.15271 9.37579C5.34288 13.254 3.94474 17.8158 3.51005 20.8586C3.43615 21.3759 3.77298 21.8628 4.28307 21.9762C4.79316 22.0896 5.30453 21.7911 5.45667 21.2912C5.54091 21.0144 5.62648 20.7255 5.71454 20.4281C6.2636 18.5742 6.90944 16.3936 7.92942 14.8021C8.5102 13.8959 9.14049 13.3028 9.82715 13.0432C10.4765 12.7976 11.3411 12.7886 12.5528 13.3944C13.7703 14.0032 15.2745 13.5774 16.1 12.5226C16.7239 11.7253 16.9133 10.6795 16.588 9.53411C17.7777 9.5075 19.0452 9.33348 20.1058 8.75182C20.9336 8.2979 21.6265 7.60354 22.0591 6.59852C22.4833 5.6131 22.6307 4.39213 22.4959 2.90947ZM13.4472 11.6056C11.9744 10.8692 10.6187 10.7076 9.40304 11.076C9.5231 10.899 9.64617 10.7233 9.77229 10.5492C12.1771 7.23002 15.6526 4.54006 20.5431 4.06436C20.5298 4.82008 20.4041 5.38506 20.2221 5.80775C19.9777 6.37565 19.6081 6.74379 19.1442 6.9982C18.1349 7.55167 16.6643 7.58622 15.0526 7.50139C14.6748 7.48151 14.3182 7.67645 14.131 8.00514C13.9439 8.33382 13.9581 8.73999 14.168 9.05471C15.0044 10.3093 14.7461 11.0075 14.525 11.29C14.2255 11.6726 13.7297 11.7468 13.4472 11.6056Z" fill="#FEFBFF"/>
<path d="M5.5 3.00001C5.5 2.44773 5.05229 2.00001 4.5 2.00001C3.94772 2.00001 3.5 2.44773 3.5 3.00001V4.00001H2.5C1.94772 4.00001 1.5 4.44773 1.5 5.00001C1.5 5.55229 1.94772 6.00001 2.5 6.00001H3.5V7.00001C3.5 7.55229 3.94772 8.00001 4.5 8.00001C5.05229 8.00001 5.5 7.55229 5.5 7.00001V6.00001H6.5C7.05229 6.00001 7.5 5.55229 7.5 5.00001C7.5 4.44773 7.05229 4.00001 6.5 4.00001H5.5V3.00001Z" fill="#FEFBFF"/>
</svg>
