<svg width="20" height="20" viewBox="0 0 20 20" fill="none" xmlns="http://www.w3.org/2000/svg">
<g clip-path="url(#clip0_292_75)">
<path d="M6.66669 5.00033V4.16699C6.66669 2.78628 7.78598 1.66699 9.16669 1.66699H10.8334C12.2141 1.66699 13.3334 2.78628 13.3334 4.16699V5.00033M1.66669 8.62323C1.66669 8.62323 4.26505 10.354 8.31474 10.7594M18.3334 8.62323C18.3334 8.62323 15.735 10.354 11.6853 10.7594M5.00002 18.3337H15C16.841 18.3337 18.3334 16.8413 18.3334 15.0003V8.33366C18.3334 6.49271 16.841 5.00033 15 5.00033H5.00002C3.15907 5.00033 1.66669 6.49271 1.66669 8.33366V15.0003C1.66669 16.8413 3.15907 18.3337 5.00002 18.3337Z" stroke="#7152F3" stroke-width="1.5" stroke-linecap="round"/>
<path d="M11.6666 10.1331V10.9665C11.6666 10.9748 11.6666 10.9748 11.6666 10.9831C11.6666 11.8915 11.6583 12.6331 9.99998 12.6331C8.34998 12.6331 8.33331 11.8998 8.33331 10.9915V10.1331C8.33331 9.2998 8.33331 9.2998 9.16665 9.2998H10.8333C11.6666 9.2998 11.6666 9.2998 11.6666 10.1331Z" stroke="#7152F3" stroke-width="1.5" stroke-miterlimit="10" stroke-linecap="round" stroke-linejoin="round"/>
</g>
<defs>
<clipPath id="clip0_292_75">
<rect width="20" height="20" fill="white"/>
</clipPath>
</defs>
</svg>
