<svg width="40" height="41" viewBox="0 0 40 41" fill="none" xmlns="http://www.w3.org/2000/svg">
<g clip-path="url(#clip0_2002_70)">
<g clip-path="url(#clip1_2002_70)">
<path d="M9 20.5089C9 20.5089 13 12.5089 20 12.5089C27 12.5089 31 20.5089 31 20.5089C31 20.5089 27 28.5089 20 28.5089C13 28.5089 9 20.5089 9 20.5089Z" stroke="#131313" stroke-width="2.5" stroke-linecap="round" stroke-linejoin="round"/>
<path d="M20 23.5089C21.6569 23.5089 23 22.1657 23 20.5089C23 18.852 21.6569 17.5089 20 17.5089C18.3431 17.5089 17 18.852 17 20.5089C17 22.1657 18.3431 23.5089 20 23.5089Z" stroke="#131313" stroke-width="2.5" stroke-linecap="round" stroke-linejoin="round"/>
</g>
</g>
<defs>
<clipPath id="clip0_2002_70">
<rect y="0.508881" width="40" height="40" rx="20" fill="white"/>
</clipPath>
<clipPath id="clip1_2002_70">
<rect width="24" height="24" fill="white" transform="translate(8 8.50888)"/>
</clipPath>
</defs>
</svg>
