<svg width="20" height="20" viewBox="0 0 20 20" fill="none" xmlns="http://www.w3.org/2000/svg">
<path d="M5.83333 18.3337C7.38957 18.3337 8.69672 17.2672 9.06381 15.8252C9.17736 15.3792 9.53976 15.0003 10 15.0003H15.8333M5.83333 18.3337C3.99238 18.3337 2.5 16.8413 2.5 15.0003V4.16699C2.5 2.78628 3.61929 1.66699 5 1.66699H13.3333C14.714 1.66699 15.8333 2.78628 15.8333 4.16699V15.0003M5.83333 18.3337H15.8333C17.3896 18.3337 18.6967 17.2672 19.0638 15.8252C19.1774 15.3792 18.7936 15.0003 18.3333 15.0003H15.8333M12.5 5.83366H5.83333M9.16667 10.0003H5.83333" stroke="#7152F3" stroke-width="1.5" stroke-linecap="round"/>
</svg>
